<svg width="265" height="107" viewBox="0 0 265 107" fill="none" xmlns="http://www.w3.org/2000/svg">
<g clip-path="url(#clip0)">
<path d="M103.012 44.0732L99.9141 47.1709V57H91.3062V11.25H99.9141V36.5972L101.582 34.4526L109.833 24.7725H120.168L108.522 38.2056L121.181 57H111.292L103.012 44.0732ZM129.926 57H121.288V24.7725H129.926V57ZM120.782 16.4326C120.782 15.1419 121.208 14.0796 122.062 13.2456C122.936 12.4116 124.117 11.9946 125.607 11.9946C127.076 11.9946 128.248 12.4116 129.121 13.2456C129.995 14.0796 130.432 15.1419 130.432 16.4326C130.432 17.7432 129.985 18.8154 129.092 19.6494C128.218 20.4834 127.056 20.9004 125.607 20.9004C124.157 20.9004 122.986 20.4834 122.092 19.6494C121.218 18.8154 120.782 17.7432 120.782 16.4326ZM141.917 24.7725L142.185 28.4956C144.489 25.6164 147.576 24.1768 151.448 24.1768C154.864 24.1768 157.405 25.1795 159.073 27.1851C160.741 29.1906 161.595 32.189 161.635 36.1802V57H153.027V36.3887C153.027 34.5618 152.63 33.2414 151.836 32.4272C151.041 31.5933 149.721 31.1763 147.874 31.1763C145.452 31.1763 143.635 32.2088 142.423 34.2739V57H133.816V24.7725H141.917ZM194.178 41.1841C194.178 46.3468 193.076 50.3778 190.872 53.2769C188.668 56.1561 185.59 57.5957 181.639 57.5957C178.144 57.5957 175.354 56.2554 173.269 53.5747L172.882 57H165.138V11.25H173.746V27.6616C175.731 25.3384 178.342 24.1768 181.579 24.1768C185.511 24.1768 188.588 25.6263 190.812 28.5254C193.056 31.4046 194.178 35.4653 194.178 40.7075V41.1841ZM185.57 40.5586C185.57 37.3021 185.054 34.9292 184.021 33.4399C182.989 31.9308 181.45 31.1763 179.405 31.1763C176.664 31.1763 174.778 32.2982 173.746 34.542V47.2603C174.798 49.5239 176.704 50.6558 179.464 50.6558C182.244 50.6558 184.071 49.2856 184.945 46.5454C185.362 45.2349 185.57 43.2393 185.57 40.5586ZM195.119 40.5884C195.119 37.3914 195.735 34.542 196.966 32.04C198.197 29.5381 199.964 27.6021 202.268 26.2319C204.591 24.8618 207.282 24.1768 210.34 24.1768C214.688 24.1768 218.233 25.5072 220.973 28.168C223.733 30.8288 225.272 34.4427 225.59 39.0098L225.649 41.2139C225.649 46.1582 224.269 50.1296 221.509 53.1279C218.749 56.1064 215.046 57.5957 210.399 57.5957C205.753 57.5957 202.039 56.1064 199.259 53.1279C196.499 50.1494 195.119 46.0986 195.119 40.9756V40.5884ZM203.727 41.2139C203.727 44.2718 204.303 46.6149 205.455 48.2432C206.606 49.8516 208.255 50.6558 210.399 50.6558C212.484 50.6558 214.112 49.8615 215.284 48.2729C216.455 46.6646 217.041 44.103 217.041 40.5884C217.041 37.59 216.455 35.2668 215.284 33.6187C214.112 31.9705 212.464 31.1465 210.34 31.1465C208.235 31.1465 206.606 31.9705 205.455 33.6187C204.303 35.2469 203.727 37.7786 203.727 41.2139ZM239.517 34.3931L244.938 24.7725H254.142L244.968 40.5586L254.529 57H245.295L239.547 46.873L233.828 57H224.565L234.126 40.5586L224.982 24.7725H234.215L239.517 34.3931Z" fill="#316FEA"/>
<path d="M89.0312 78.4219C89.0312 75.7865 89.6198 73.6875 90.7969 72.125C91.9844 70.5625 93.6042 69.7812 95.6562 69.7812C97.3021 69.7812 98.6615 70.3958 99.7344 71.625V63H104.266V87H100.188L99.9688 85.2031C98.8438 86.6094 97.3958 87.3125 95.625 87.3125C93.6354 87.3125 92.0365 86.5312 90.8281 84.9688C89.6302 83.3958 89.0312 81.2135 89.0312 78.4219ZM93.5469 78.75C93.5469 80.3333 93.8229 81.5469 94.375 82.3906C94.9271 83.2344 95.7292 83.6562 96.7812 83.6562C98.1771 83.6562 99.1615 83.0677 99.7344 81.8906V75.2188C99.1719 74.0417 98.1979 73.4531 96.8125 73.4531C94.6354 73.4531 93.5469 75.2188 93.5469 78.75ZM113.947 87.3125C111.468 87.3125 109.447 86.5521 107.884 85.0312C106.332 83.5104 105.556 81.4844 105.556 78.9531V78.5156C105.556 76.8177 105.884 75.3021 106.541 73.9688C107.197 72.625 108.124 71.5938 109.322 70.875C110.53 70.1458 111.905 69.7812 113.447 69.7812C115.759 69.7812 117.577 70.5104 118.9 71.9688C120.233 73.4271 120.9 75.4948 120.9 78.1719V80.0156H110.134C110.28 81.1198 110.718 82.0052 111.447 82.6719C112.186 83.3385 113.119 83.6719 114.244 83.6719C115.983 83.6719 117.343 83.0417 118.322 81.7812L120.541 84.2656C119.864 85.224 118.947 85.974 117.791 86.5156C116.634 87.0469 115.353 87.3125 113.947 87.3125ZM113.431 73.4375C112.535 73.4375 111.806 73.7396 111.244 74.3438C110.692 74.9479 110.337 75.8125 110.181 76.9375H116.462V76.5781C116.442 75.5781 116.171 74.8073 115.65 74.2656C115.129 73.7135 114.39 73.4375 113.431 73.4375ZM127.987 81.4844L131.128 70.0938H135.847L130.144 87H125.831L120.128 70.0938H124.847L127.987 81.4844ZM143.809 87.3125C141.33 87.3125 139.309 86.5521 137.747 85.0312C136.195 83.5104 135.419 81.4844 135.419 78.9531V78.5156C135.419 76.8177 135.747 75.3021 136.403 73.9688C137.059 72.625 137.986 71.5938 139.184 70.875C140.393 70.1458 141.768 69.7812 143.309 69.7812C145.622 69.7812 147.44 70.5104 148.763 71.9688C150.096 73.4271 150.763 75.4948 150.763 78.1719V80.0156H139.997C140.143 81.1198 140.58 82.0052 141.309 82.6719C142.049 83.3385 142.981 83.6719 144.106 83.6719C145.846 83.6719 147.205 83.0417 148.184 81.7812L150.403 84.2656C149.726 85.224 148.809 85.974 147.653 86.5156C146.497 87.0469 145.216 87.3125 143.809 87.3125ZM143.294 73.4375C142.398 73.4375 141.669 73.7396 141.106 74.3438C140.554 74.9479 140.2 75.8125 140.044 76.9375H146.325V76.5781C146.304 75.5781 146.033 74.8073 145.513 74.2656C144.992 73.7135 144.252 73.4375 143.294 73.4375ZM156.506 87H151.975V63H156.506V87ZM157.938 78.3906C157.938 76.7135 158.26 75.2188 158.906 73.9062C159.552 72.5938 160.479 71.5781 161.688 70.8594C162.906 70.1406 164.318 69.7812 165.922 69.7812C168.203 69.7812 170.062 70.4792 171.5 71.875C172.948 73.2708 173.755 75.1667 173.922 77.5625L173.953 78.7188C173.953 81.3125 173.229 83.3958 171.781 84.9688C170.333 86.5312 168.391 87.3125 165.953 87.3125C163.516 87.3125 161.568 86.5312 160.109 84.9688C158.661 83.4062 157.938 81.2812 157.938 78.5938V78.3906ZM162.453 78.7188C162.453 80.3229 162.755 81.5521 163.359 82.4062C163.964 83.25 164.828 83.6719 165.953 83.6719C167.047 83.6719 167.901 83.2552 168.516 82.4219C169.13 81.5781 169.438 80.2344 169.438 78.3906C169.438 76.8177 169.13 75.599 168.516 74.7344C167.901 73.8698 167.036 73.4375 165.922 73.4375C164.818 73.4375 163.964 73.8698 163.359 74.7344C162.755 75.5885 162.453 76.9167 162.453 78.7188ZM190.353 78.7031C190.353 81.3073 189.759 83.3958 188.572 84.9688C187.395 86.5312 185.801 87.3125 183.791 87.3125C182.082 87.3125 180.702 86.7188 179.65 85.5312V93.5H175.134V70.0938H179.322L179.478 71.75C180.572 70.4375 181.999 69.7812 183.759 69.7812C185.843 69.7812 187.463 70.5521 188.619 72.0938C189.775 73.6354 190.353 75.7604 190.353 78.4688V78.7031ZM185.838 78.375C185.838 76.8021 185.556 75.5885 184.994 74.7344C184.442 73.8802 183.634 73.4531 182.572 73.4531C181.155 73.4531 180.181 73.9948 179.65 75.0781V82C180.202 83.1146 181.186 83.6719 182.603 83.6719C184.759 83.6719 185.838 81.9062 185.838 78.375ZM199.347 87.3125C196.868 87.3125 194.847 86.5521 193.284 85.0312C191.732 83.5104 190.956 81.4844 190.956 78.9531V78.5156C190.956 76.8177 191.284 75.3021 191.941 73.9688C192.597 72.625 193.524 71.5938 194.722 70.875C195.93 70.1458 197.305 69.7812 198.847 69.7812C201.159 69.7812 202.977 70.5104 204.3 71.9688C205.633 73.4271 206.3 75.4948 206.3 78.1719V80.0156H195.534C195.68 81.1198 196.118 82.0052 196.847 82.6719C197.586 83.3385 198.519 83.6719 199.644 83.6719C201.383 83.6719 202.743 83.0417 203.722 81.7812L205.941 84.2656C205.264 85.224 204.347 85.974 203.191 86.5156C202.034 87.0469 200.753 87.3125 199.347 87.3125ZM198.831 73.4375C197.935 73.4375 197.206 73.7396 196.644 74.3438C196.092 74.9479 195.738 75.8125 195.581 76.9375H201.863V76.5781C201.842 75.5781 201.571 74.8073 201.05 74.2656C200.529 73.7135 199.79 73.4375 198.831 73.4375ZM216.778 74.3281C216.164 74.2448 215.622 74.2031 215.153 74.2031C213.445 74.2031 212.325 74.7812 211.794 75.9375V87H207.278V70.0938H211.544L211.669 72.1094C212.575 70.5573 213.83 69.7812 215.434 69.7812C215.934 69.7812 216.403 69.849 216.841 69.9844L216.778 74.3281ZM226.522 82.3281C226.522 81.776 226.246 81.3438 225.694 81.0312C225.152 80.7083 224.277 80.4219 223.069 80.1719C219.048 79.3281 217.037 77.6198 217.037 75.0469C217.037 73.5469 217.657 72.2969 218.897 71.2969C220.147 70.2865 221.777 69.7812 223.787 69.7812C225.933 69.7812 227.647 70.2865 228.928 71.2969C230.22 72.3073 230.866 73.6198 230.866 75.2344H226.35C226.35 74.5885 226.142 74.0573 225.725 73.6406C225.308 73.2135 224.657 73 223.772 73C223.011 73 222.423 73.1719 222.006 73.5156C221.59 73.8594 221.381 74.2969 221.381 74.8281C221.381 75.3281 221.616 75.7344 222.084 76.0469C222.564 76.349 223.366 76.6146 224.491 76.8438C225.616 77.0625 226.564 77.3125 227.334 77.5938C229.72 78.4688 230.912 79.9844 230.912 82.1406C230.912 83.6823 230.251 84.9323 228.928 85.8906C227.605 86.8385 225.897 87.3125 223.803 87.3125C222.386 87.3125 221.126 87.0625 220.022 86.5625C218.928 86.0521 218.069 85.3594 217.444 84.4844C216.819 83.599 216.506 82.6458 216.506 81.625H220.787C220.829 82.4271 221.126 83.0417 221.678 83.4688C222.23 83.8958 222.97 84.1094 223.897 84.1094C224.761 84.1094 225.412 83.9479 225.85 83.625C226.298 83.2917 226.522 82.8594 226.522 82.3281Z" fill="#316FEA"/>
<path d="M89.0312 78.4219C89.0312 75.7865 89.6198 73.6875 90.7969 72.125C91.9844 70.5625 93.6042 69.7812 95.6562 69.7812C97.3021 69.7812 98.6615 70.3958 99.7344 71.625V63H104.266V87H100.188L99.9688 85.2031C98.8438 86.6094 97.3958 87.3125 95.625 87.3125C93.6354 87.3125 92.0365 86.5312 90.8281 84.9688C89.6302 83.3958 89.0312 81.2135 89.0312 78.4219ZM93.5469 78.75C93.5469 80.3333 93.8229 81.5469 94.375 82.3906C94.9271 83.2344 95.7292 83.6562 96.7812 83.6562C98.1771 83.6562 99.1615 83.0677 99.7344 81.8906V75.2188C99.1719 74.0417 98.1979 73.4531 96.8125 73.4531C94.6354 73.4531 93.5469 75.2188 93.5469 78.75ZM113.947 87.3125C111.468 87.3125 109.447 86.5521 107.884 85.0312C106.332 83.5104 105.556 81.4844 105.556 78.9531V78.5156C105.556 76.8177 105.884 75.3021 106.541 73.9688C107.197 72.625 108.124 71.5938 109.322 70.875C110.53 70.1458 111.905 69.7812 113.447 69.7812C115.759 69.7812 117.577 70.5104 118.9 71.9688C120.233 73.4271 120.9 75.4948 120.9 78.1719V80.0156H110.134C110.28 81.1198 110.718 82.0052 111.447 82.6719C112.186 83.3385 113.119 83.6719 114.244 83.6719C115.983 83.6719 117.343 83.0417 118.322 81.7812L120.541 84.2656C119.864 85.224 118.947 85.974 117.791 86.5156C116.634 87.0469 115.353 87.3125 113.947 87.3125ZM113.431 73.4375C112.535 73.4375 111.806 73.7396 111.244 74.3438C110.692 74.9479 110.337 75.8125 110.181 76.9375H116.462V76.5781C116.442 75.5781 116.171 74.8073 115.65 74.2656C115.129 73.7135 114.39 73.4375 113.431 73.4375ZM127.987 81.4844L131.128 70.0938H135.847L130.144 87H125.831L120.128 70.0938H124.847L127.987 81.4844ZM143.809 87.3125C141.33 87.3125 139.309 86.5521 137.747 85.0312C136.195 83.5104 135.419 81.4844 135.419 78.9531V78.5156C135.419 76.8177 135.747 75.3021 136.403 73.9688C137.059 72.625 137.986 71.5938 139.184 70.875C140.393 70.1458 141.768 69.7812 143.309 69.7812C145.622 69.7812 147.44 70.5104 148.763 71.9688C150.096 73.4271 150.763 75.4948 150.763 78.1719V80.0156H139.997C140.143 81.1198 140.58 82.0052 141.309 82.6719C142.049 83.3385 142.981 83.6719 144.106 83.6719C145.846 83.6719 147.205 83.0417 148.184 81.7812L150.403 84.2656C149.726 85.224 148.809 85.974 147.653 86.5156C146.497 87.0469 145.216 87.3125 143.809 87.3125ZM143.294 73.4375C142.398 73.4375 141.669 73.7396 141.106 74.3438C140.554 74.9479 140.2 75.8125 140.044 76.9375H146.325V76.5781C146.304 75.5781 146.033 74.8073 145.513 74.2656C144.992 73.7135 144.252 73.4375 143.294 73.4375ZM156.506 87H151.975V63H156.506V87ZM157.938 78.3906C157.938 76.7135 158.26 75.2188 158.906 73.9062C159.552 72.5938 160.479 71.5781 161.688 70.8594C162.906 70.1406 164.318 69.7812 165.922 69.7812C168.203 69.7812 170.062 70.4792 171.5 71.875C172.948 73.2708 173.755 75.1667 173.922 77.5625L173.953 78.7188C173.953 81.3125 173.229 83.3958 171.781 84.9688C170.333 86.5312 168.391 87.3125 165.953 87.3125C163.516 87.3125 161.568 86.5312 160.109 84.9688C158.661 83.4062 157.938 81.2812 157.938 78.5938V78.3906ZM162.453 78.7188C162.453 80.3229 162.755 81.5521 163.359 82.4062C163.964 83.25 164.828 83.6719 165.953 83.6719C167.047 83.6719 167.901 83.2552 168.516 82.4219C169.13 81.5781 169.438 80.2344 169.438 78.3906C169.438 76.8177 169.13 75.599 168.516 74.7344C167.901 73.8698 167.036 73.4375 165.922 73.4375C164.818 73.4375 163.964 73.8698 163.359 74.7344C162.755 75.5885 162.453 76.9167 162.453 78.7188ZM190.353 78.7031C190.353 81.3073 189.759 83.3958 188.572 84.9688C187.395 86.5312 185.801 87.3125 183.791 87.3125C182.082 87.3125 180.702 86.7188 179.65 85.5312V93.5H175.134V70.0938H179.322L179.478 71.75C180.572 70.4375 181.999 69.7812 183.759 69.7812C185.843 69.7812 187.463 70.5521 188.619 72.0938C189.775 73.6354 190.353 75.7604 190.353 78.4688V78.7031ZM185.838 78.375C185.838 76.8021 185.556 75.5885 184.994 74.7344C184.442 73.8802 183.634 73.4531 182.572 73.4531C181.155 73.4531 180.181 73.9948 179.65 75.0781V82C180.202 83.1146 181.186 83.6719 182.603 83.6719C184.759 83.6719 185.838 81.9062 185.838 78.375ZM199.347 87.3125C196.868 87.3125 194.847 86.5521 193.284 85.0312C191.732 83.5104 190.956 81.4844 190.956 78.9531V78.5156C190.956 76.8177 191.284 75.3021 191.941 73.9688C192.597 72.625 193.524 71.5938 194.722 70.875C195.93 70.1458 197.305 69.7812 198.847 69.7812C201.159 69.7812 202.977 70.5104 204.3 71.9688C205.633 73.4271 206.3 75.4948 206.3 78.1719V80.0156H195.534C195.68 81.1198 196.118 82.0052 196.847 82.6719C197.586 83.3385 198.519 83.6719 199.644 83.6719C201.383 83.6719 202.743 83.0417 203.722 81.7812L205.941 84.2656C205.264 85.224 204.347 85.974 203.191 86.5156C202.034 87.0469 200.753 87.3125 199.347 87.3125ZM198.831 73.4375C197.935 73.4375 197.206 73.7396 196.644 74.3438C196.092 74.9479 195.738 75.8125 195.581 76.9375H201.863V76.5781C201.842 75.5781 201.571 74.8073 201.05 74.2656C200.529 73.7135 199.79 73.4375 198.831 73.4375ZM216.778 74.3281C216.164 74.2448 215.622 74.2031 215.153 74.2031C213.445 74.2031 212.325 74.7812 211.794 75.9375V87H207.278V70.0938H211.544L211.669 72.1094C212.575 70.5573 213.83 69.7812 215.434 69.7812C215.934 69.7812 216.403 69.849 216.841 69.9844L216.778 74.3281ZM226.522 82.3281C226.522 81.776 226.246 81.3438 225.694 81.0312C225.152 80.7083 224.277 80.4219 223.069 80.1719C219.048 79.3281 217.037 77.6198 217.037 75.0469C217.037 73.5469 217.657 72.2969 218.897 71.2969C220.147 70.2865 221.777 69.7812 223.787 69.7812C225.933 69.7812 227.647 70.2865 228.928 71.2969C230.22 72.3073 230.866 73.6198 230.866 75.2344H226.35C226.35 74.5885 226.142 74.0573 225.725 73.6406C225.308 73.2135 224.657 73 223.772 73C223.011 73 222.423 73.1719 222.006 73.5156C221.59 73.8594 221.381 74.2969 221.381 74.8281C221.381 75.3281 221.616 75.7344 222.084 76.0469C222.564 76.349 223.366 76.6146 224.491 76.8438C225.616 77.0625 226.564 77.3125 227.334 77.5938C229.72 78.4688 230.912 79.9844 230.912 82.1406C230.912 83.6823 230.251 84.9323 228.928 85.8906C227.605 86.8385 225.897 87.3125 223.803 87.3125C222.386 87.3125 221.126 87.0625 220.022 86.5625C218.928 86.0521 218.069 85.3594 217.444 84.4844C216.819 83.599 216.506 82.6458 216.506 81.625H220.787C220.829 82.4271 221.126 83.0417 221.678 83.4688C222.23 83.8958 222.97 84.1094 223.897 84.1094C224.761 84.1094 225.412 83.9479 225.85 83.625C226.298 83.2917 226.522 82.8594 226.522 82.3281Z" fill="#1E448F"/>
<path fill-rule="evenodd" clip-rule="evenodd" d="M6.58 18.9771L14.3155 72.0206C14.5649 73.731 16.0402 75 17.7793 75H63.3888C65.1091 75 66.5743 73.7576 66.8451 72.0693L75.3542 19.0259C75.6931 16.9131 74.0506 15 71.8978 15H10.0438C7.91103 15 6.2741 16.8795 6.58 18.9771ZM34.8458 55C33.8565 55 33.0158 54.2767 32.8682 53.2985L30.8469 39.9072C30.6643 38.6974 31.6011 37.6087 32.8245 37.6087H49.1755C50.3989 37.6087 51.3357 38.6974 51.1531 39.9072L49.1318 53.2985C48.9842 54.2767 48.1435 55 47.1542 55H34.8458Z" fill="#316FEA"/>
</g>
<defs>
<clipPath id="clip0">
<rect width="265" height="107" fill="white"/>
</clipPath>
</defs>
</svg>
