<svg width="334" height="157" viewBox="0 0 334 157" fill="none" xmlns="http://www.w3.org/2000/svg">
<path d="M133.012 72.0732L129.914 75.1709V85H121.306V39.25H129.914V64.5972L131.582 62.4526L139.833 52.7725H150.168L138.522 66.2056L151.181 85H141.292L133.012 72.0732ZM159.926 85H151.288V52.7725H159.926V85ZM150.782 44.4326C150.782 43.1419 151.208 42.0796 152.062 41.2456C152.936 40.4116 154.117 39.9946 155.607 39.9946C157.076 39.9946 158.248 40.4116 159.121 41.2456C159.995 42.0796 160.432 43.1419 160.432 44.4326C160.432 45.7432 159.985 46.8154 159.092 47.6494C158.218 48.4834 157.056 48.9004 155.607 48.9004C154.157 48.9004 152.986 48.4834 152.092 47.6494C151.218 46.8154 150.782 45.7432 150.782 44.4326ZM171.917 52.7725L172.185 56.4956C174.489 53.6164 177.576 52.1768 181.448 52.1768C184.864 52.1768 187.405 53.1795 189.073 55.1851C190.741 57.1906 191.595 60.189 191.635 64.1802V85H183.027V64.3887C183.027 62.5618 182.63 61.2414 181.836 60.4272C181.041 59.5933 179.721 59.1763 177.874 59.1763C175.452 59.1763 173.635 60.2088 172.423 62.2739V85H163.816V52.7725H171.917ZM224.178 69.1841C224.178 74.3468 223.076 78.3778 220.872 81.2769C218.668 84.1561 215.59 85.5957 211.639 85.5957C208.144 85.5957 205.354 84.2554 203.269 81.5747L202.882 85H195.138V39.25H203.746V55.6616C205.731 53.3384 208.342 52.1768 211.579 52.1768C215.511 52.1768 218.588 53.6263 220.812 56.5254C223.056 59.4046 224.178 63.4653 224.178 68.7075V69.1841ZM215.57 68.5586C215.57 65.3021 215.054 62.9292 214.021 61.4399C212.989 59.9308 211.45 59.1763 209.405 59.1763C206.664 59.1763 204.778 60.2982 203.746 62.542V75.2603C204.798 77.5239 206.704 78.6558 209.464 78.6558C212.244 78.6558 214.071 77.2856 214.945 74.5454C215.362 73.2349 215.57 71.2393 215.57 68.5586ZM225.119 68.5884C225.119 65.3914 225.735 62.542 226.966 60.04C228.197 57.5381 229.964 55.6021 232.268 54.2319C234.591 52.8618 237.282 52.1768 240.34 52.1768C244.688 52.1768 248.233 53.5072 250.973 56.168C253.733 58.8288 255.272 62.4427 255.59 67.0098L255.649 69.2139C255.649 74.1582 254.269 78.1296 251.509 81.1279C248.749 84.1064 245.046 85.5957 240.399 85.5957C235.753 85.5957 232.039 84.1064 229.259 81.1279C226.499 78.1494 225.119 74.0986 225.119 68.9756V68.5884ZM233.727 69.2139C233.727 72.2718 234.303 74.6149 235.455 76.2432C236.606 77.8516 238.255 78.6558 240.399 78.6558C242.484 78.6558 244.112 77.8615 245.284 76.2729C246.455 74.6646 247.041 72.103 247.041 68.5884C247.041 65.59 246.455 63.2668 245.284 61.6187C244.112 59.9705 242.464 59.1465 240.34 59.1465C238.235 59.1465 236.606 59.9705 235.455 61.6187C234.303 63.2469 233.727 65.7786 233.727 69.2139ZM269.517 62.3931L274.938 52.7725H284.142L274.968 68.5586L284.529 85H275.295L269.547 74.873L263.828 85H254.565L264.126 68.5586L254.982 52.7725H264.215L269.517 62.3931Z" fill="#316FEA"/>
<path d="M119.031 106.422C119.031 103.786 119.62 101.688 120.797 100.125C121.984 98.5625 123.604 97.7812 125.656 97.7812C127.302 97.7812 128.661 98.3958 129.734 99.625V91H134.266V115H130.188L129.969 113.203C128.844 114.609 127.396 115.312 125.625 115.312C123.635 115.312 122.036 114.531 120.828 112.969C119.63 111.396 119.031 109.214 119.031 106.422ZM123.547 106.75C123.547 108.333 123.823 109.547 124.375 110.391C124.927 111.234 125.729 111.656 126.781 111.656C128.177 111.656 129.161 111.068 129.734 109.891V103.219C129.172 102.042 128.198 101.453 126.812 101.453C124.635 101.453 123.547 103.219 123.547 106.75ZM143.947 115.312C141.468 115.312 139.447 114.552 137.884 113.031C136.332 111.51 135.556 109.484 135.556 106.953V106.516C135.556 104.818 135.884 103.302 136.541 101.969C137.197 100.625 138.124 99.5938 139.322 98.875C140.53 98.1458 141.905 97.7812 143.447 97.7812C145.759 97.7812 147.577 98.5104 148.9 99.9688C150.233 101.427 150.9 103.495 150.9 106.172V108.016H140.134C140.28 109.12 140.718 110.005 141.447 110.672C142.186 111.339 143.119 111.672 144.244 111.672C145.983 111.672 147.343 111.042 148.322 109.781L150.541 112.266C149.864 113.224 148.947 113.974 147.791 114.516C146.634 115.047 145.353 115.312 143.947 115.312ZM143.431 101.438C142.535 101.438 141.806 101.74 141.244 102.344C140.692 102.948 140.337 103.812 140.181 104.938H146.462V104.578C146.442 103.578 146.171 102.807 145.65 102.266C145.129 101.714 144.39 101.438 143.431 101.438ZM157.987 109.484L161.128 98.0938H165.847L160.144 115H155.831L150.128 98.0938H154.847L157.987 109.484ZM173.809 115.312C171.33 115.312 169.309 114.552 167.747 113.031C166.195 111.51 165.419 109.484 165.419 106.953V106.516C165.419 104.818 165.747 103.302 166.403 101.969C167.059 100.625 167.986 99.5938 169.184 98.875C170.393 98.1458 171.768 97.7812 173.309 97.7812C175.622 97.7812 177.44 98.5104 178.763 99.9688C180.096 101.427 180.763 103.495 180.763 106.172V108.016H169.997C170.143 109.12 170.58 110.005 171.309 110.672C172.049 111.339 172.981 111.672 174.106 111.672C175.846 111.672 177.205 111.042 178.184 109.781L180.403 112.266C179.726 113.224 178.809 113.974 177.653 114.516C176.497 115.047 175.216 115.312 173.809 115.312ZM173.294 101.438C172.398 101.438 171.669 101.74 171.106 102.344C170.554 102.948 170.2 103.812 170.044 104.938H176.325V104.578C176.304 103.578 176.033 102.807 175.513 102.266C174.992 101.714 174.252 101.438 173.294 101.438ZM186.506 115H181.975V91H186.506V115ZM187.938 106.391C187.938 104.714 188.26 103.219 188.906 101.906C189.552 100.594 190.479 99.5781 191.688 98.8594C192.906 98.1406 194.318 97.7812 195.922 97.7812C198.203 97.7812 200.062 98.4792 201.5 99.875C202.948 101.271 203.755 103.167 203.922 105.562L203.953 106.719C203.953 109.312 203.229 111.396 201.781 112.969C200.333 114.531 198.391 115.312 195.953 115.312C193.516 115.312 191.568 114.531 190.109 112.969C188.661 111.406 187.938 109.281 187.938 106.594V106.391ZM192.453 106.719C192.453 108.323 192.755 109.552 193.359 110.406C193.964 111.25 194.828 111.672 195.953 111.672C197.047 111.672 197.901 111.255 198.516 110.422C199.13 109.578 199.438 108.234 199.438 106.391C199.438 104.818 199.13 103.599 198.516 102.734C197.901 101.87 197.036 101.438 195.922 101.438C194.818 101.438 193.964 101.87 193.359 102.734C192.755 103.589 192.453 104.917 192.453 106.719ZM220.353 106.703C220.353 109.307 219.759 111.396 218.572 112.969C217.395 114.531 215.801 115.312 213.791 115.312C212.082 115.312 210.702 114.719 209.65 113.531V121.5H205.134V98.0938H209.322L209.478 99.75C210.572 98.4375 211.999 97.7812 213.759 97.7812C215.843 97.7812 217.463 98.5521 218.619 100.094C219.775 101.635 220.353 103.76 220.353 106.469V106.703ZM215.838 106.375C215.838 104.802 215.556 103.589 214.994 102.734C214.442 101.88 213.634 101.453 212.572 101.453C211.155 101.453 210.181 101.995 209.65 103.078V110C210.202 111.115 211.186 111.672 212.603 111.672C214.759 111.672 215.838 109.906 215.838 106.375ZM229.347 115.312C226.868 115.312 224.847 114.552 223.284 113.031C221.732 111.51 220.956 109.484 220.956 106.953V106.516C220.956 104.818 221.284 103.302 221.941 101.969C222.597 100.625 223.524 99.5938 224.722 98.875C225.93 98.1458 227.305 97.7812 228.847 97.7812C231.159 97.7812 232.977 98.5104 234.3 99.9688C235.633 101.427 236.3 103.495 236.3 106.172V108.016H225.534C225.68 109.12 226.118 110.005 226.847 110.672C227.586 111.339 228.519 111.672 229.644 111.672C231.383 111.672 232.743 111.042 233.722 109.781L235.941 112.266C235.264 113.224 234.347 113.974 233.191 114.516C232.034 115.047 230.753 115.312 229.347 115.312ZM228.831 101.438C227.935 101.438 227.206 101.74 226.644 102.344C226.092 102.948 225.738 103.812 225.581 104.938H231.863V104.578C231.842 103.578 231.571 102.807 231.05 102.266C230.529 101.714 229.79 101.438 228.831 101.438ZM246.778 102.328C246.164 102.245 245.622 102.203 245.153 102.203C243.445 102.203 242.325 102.781 241.794 103.938V115H237.278V98.0938H241.544L241.669 100.109C242.575 98.5573 243.83 97.7812 245.434 97.7812C245.934 97.7812 246.403 97.849 246.841 97.9844L246.778 102.328ZM256.522 110.328C256.522 109.776 256.246 109.344 255.694 109.031C255.152 108.708 254.277 108.422 253.069 108.172C249.048 107.328 247.037 105.62 247.037 103.047C247.037 101.547 247.657 100.297 248.897 99.2969C250.147 98.2865 251.777 97.7812 253.787 97.7812C255.933 97.7812 257.647 98.2865 258.928 99.2969C260.22 100.307 260.866 101.62 260.866 103.234H256.35C256.35 102.589 256.142 102.057 255.725 101.641C255.308 101.214 254.657 101 253.772 101C253.011 101 252.423 101.172 252.006 101.516C251.59 101.859 251.381 102.297 251.381 102.828C251.381 103.328 251.616 103.734 252.084 104.047C252.564 104.349 253.366 104.615 254.491 104.844C255.616 105.062 256.564 105.312 257.334 105.594C259.72 106.469 260.912 107.984 260.912 110.141C260.912 111.682 260.251 112.932 258.928 113.891C257.605 114.839 255.897 115.312 253.803 115.312C252.386 115.312 251.126 115.062 250.022 114.562C248.928 114.052 248.069 113.359 247.444 112.484C246.819 111.599 246.506 110.646 246.506 109.625H250.787C250.829 110.427 251.126 111.042 251.678 111.469C252.23 111.896 252.97 112.109 253.897 112.109C254.761 112.109 255.412 111.948 255.85 111.625C256.298 111.292 256.522 110.859 256.522 110.328Z" fill="#316FEA"/>
<path d="M119.031 106.422C119.031 103.786 119.62 101.688 120.797 100.125C121.984 98.5625 123.604 97.7812 125.656 97.7812C127.302 97.7812 128.661 98.3958 129.734 99.625V91H134.266V115H130.188L129.969 113.203C128.844 114.609 127.396 115.312 125.625 115.312C123.635 115.312 122.036 114.531 120.828 112.969C119.63 111.396 119.031 109.214 119.031 106.422ZM123.547 106.75C123.547 108.333 123.823 109.547 124.375 110.391C124.927 111.234 125.729 111.656 126.781 111.656C128.177 111.656 129.161 111.068 129.734 109.891V103.219C129.172 102.042 128.198 101.453 126.812 101.453C124.635 101.453 123.547 103.219 123.547 106.75ZM143.947 115.312C141.468 115.312 139.447 114.552 137.884 113.031C136.332 111.51 135.556 109.484 135.556 106.953V106.516C135.556 104.818 135.884 103.302 136.541 101.969C137.197 100.625 138.124 99.5938 139.322 98.875C140.53 98.1458 141.905 97.7812 143.447 97.7812C145.759 97.7812 147.577 98.5104 148.9 99.9688C150.233 101.427 150.9 103.495 150.9 106.172V108.016H140.134C140.28 109.12 140.718 110.005 141.447 110.672C142.186 111.339 143.119 111.672 144.244 111.672C145.983 111.672 147.343 111.042 148.322 109.781L150.541 112.266C149.864 113.224 148.947 113.974 147.791 114.516C146.634 115.047 145.353 115.312 143.947 115.312ZM143.431 101.438C142.535 101.438 141.806 101.74 141.244 102.344C140.692 102.948 140.337 103.812 140.181 104.938H146.462V104.578C146.442 103.578 146.171 102.807 145.65 102.266C145.129 101.714 144.39 101.438 143.431 101.438ZM157.987 109.484L161.128 98.0938H165.847L160.144 115H155.831L150.128 98.0938H154.847L157.987 109.484ZM173.809 115.312C171.33 115.312 169.309 114.552 167.747 113.031C166.195 111.51 165.419 109.484 165.419 106.953V106.516C165.419 104.818 165.747 103.302 166.403 101.969C167.059 100.625 167.986 99.5938 169.184 98.875C170.393 98.1458 171.768 97.7812 173.309 97.7812C175.622 97.7812 177.44 98.5104 178.763 99.9688C180.096 101.427 180.763 103.495 180.763 106.172V108.016H169.997C170.143 109.12 170.58 110.005 171.309 110.672C172.049 111.339 172.981 111.672 174.106 111.672C175.846 111.672 177.205 111.042 178.184 109.781L180.403 112.266C179.726 113.224 178.809 113.974 177.653 114.516C176.497 115.047 175.216 115.312 173.809 115.312ZM173.294 101.438C172.398 101.438 171.669 101.74 171.106 102.344C170.554 102.948 170.2 103.812 170.044 104.938H176.325V104.578C176.304 103.578 176.033 102.807 175.513 102.266C174.992 101.714 174.252 101.438 173.294 101.438ZM186.506 115H181.975V91H186.506V115ZM187.938 106.391C187.938 104.714 188.26 103.219 188.906 101.906C189.552 100.594 190.479 99.5781 191.688 98.8594C192.906 98.1406 194.318 97.7812 195.922 97.7812C198.203 97.7812 200.062 98.4792 201.5 99.875C202.948 101.271 203.755 103.167 203.922 105.562L203.953 106.719C203.953 109.312 203.229 111.396 201.781 112.969C200.333 114.531 198.391 115.312 195.953 115.312C193.516 115.312 191.568 114.531 190.109 112.969C188.661 111.406 187.938 109.281 187.938 106.594V106.391ZM192.453 106.719C192.453 108.323 192.755 109.552 193.359 110.406C193.964 111.25 194.828 111.672 195.953 111.672C197.047 111.672 197.901 111.255 198.516 110.422C199.13 109.578 199.438 108.234 199.438 106.391C199.438 104.818 199.13 103.599 198.516 102.734C197.901 101.87 197.036 101.438 195.922 101.438C194.818 101.438 193.964 101.87 193.359 102.734C192.755 103.589 192.453 104.917 192.453 106.719ZM220.353 106.703C220.353 109.307 219.759 111.396 218.572 112.969C217.395 114.531 215.801 115.312 213.791 115.312C212.082 115.312 210.702 114.719 209.65 113.531V121.5H205.134V98.0938H209.322L209.478 99.75C210.572 98.4375 211.999 97.7812 213.759 97.7812C215.843 97.7812 217.463 98.5521 218.619 100.094C219.775 101.635 220.353 103.76 220.353 106.469V106.703ZM215.838 106.375C215.838 104.802 215.556 103.589 214.994 102.734C214.442 101.88 213.634 101.453 212.572 101.453C211.155 101.453 210.181 101.995 209.65 103.078V110C210.202 111.115 211.186 111.672 212.603 111.672C214.759 111.672 215.838 109.906 215.838 106.375ZM229.347 115.312C226.868 115.312 224.847 114.552 223.284 113.031C221.732 111.51 220.956 109.484 220.956 106.953V106.516C220.956 104.818 221.284 103.302 221.941 101.969C222.597 100.625 223.524 99.5938 224.722 98.875C225.93 98.1458 227.305 97.7812 228.847 97.7812C231.159 97.7812 232.977 98.5104 234.3 99.9688C235.633 101.427 236.3 103.495 236.3 106.172V108.016H225.534C225.68 109.12 226.118 110.005 226.847 110.672C227.586 111.339 228.519 111.672 229.644 111.672C231.383 111.672 232.743 111.042 233.722 109.781L235.941 112.266C235.264 113.224 234.347 113.974 233.191 114.516C232.034 115.047 230.753 115.312 229.347 115.312ZM228.831 101.438C227.935 101.438 227.206 101.74 226.644 102.344C226.092 102.948 225.738 103.812 225.581 104.938H231.863V104.578C231.842 103.578 231.571 102.807 231.05 102.266C230.529 101.714 229.79 101.438 228.831 101.438ZM246.778 102.328C246.164 102.245 245.622 102.203 245.153 102.203C243.445 102.203 242.325 102.781 241.794 103.938V115H237.278V98.0938H241.544L241.669 100.109C242.575 98.5573 243.83 97.7812 245.434 97.7812C245.934 97.7812 246.403 97.849 246.841 97.9844L246.778 102.328ZM256.522 110.328C256.522 109.776 256.246 109.344 255.694 109.031C255.152 108.708 254.277 108.422 253.069 108.172C249.048 107.328 247.037 105.62 247.037 103.047C247.037 101.547 247.657 100.297 248.897 99.2969C250.147 98.2865 251.777 97.7812 253.787 97.7812C255.933 97.7812 257.647 98.2865 258.928 99.2969C260.22 100.307 260.866 101.62 260.866 103.234H256.35C256.35 102.589 256.142 102.057 255.725 101.641C255.308 101.214 254.657 101 253.772 101C253.011 101 252.423 101.172 252.006 101.516C251.59 101.859 251.381 102.297 251.381 102.828C251.381 103.328 251.616 103.734 252.084 104.047C252.564 104.349 253.366 104.615 254.491 104.844C255.616 105.062 256.564 105.312 257.334 105.594C259.72 106.469 260.912 107.984 260.912 110.141C260.912 111.682 260.251 112.932 258.928 113.891C257.605 114.839 255.897 115.312 253.803 115.312C252.386 115.312 251.126 115.062 250.022 114.562C248.928 114.052 248.069 113.359 247.444 112.484C246.819 111.599 246.506 110.646 246.506 109.625H250.787C250.829 110.427 251.126 111.042 251.678 111.469C252.23 111.896 252.97 112.109 253.897 112.109C254.761 112.109 255.412 111.948 255.85 111.625C256.298 111.292 256.522 110.859 256.522 110.328Z" fill="#1E448F"/>
<path fill-rule="evenodd" clip-rule="evenodd" d="M36.58 46.9771L44.3155 100.021C44.5649 101.731 46.0402 103 47.7793 103H93.3888C95.1091 103 96.5743 101.758 96.8451 100.069L105.354 47.0259C105.693 44.9131 104.051 43 101.898 43H40.0438C37.911 43 36.2741 44.8795 36.58 46.9771ZM64.8458 83C63.8565 83 63.0158 82.2767 62.8682 81.2985L60.8469 67.9072C60.6643 66.6974 61.6011 65.6087 62.8245 65.6087H79.1755C80.3989 65.6087 81.3357 66.6974 81.1531 67.9072L79.1318 81.2985C78.9842 82.2767 78.1435 83 77.1542 83H64.8458Z" fill="#316FEA"/>
</svg>
